<?xml version="1.0" encoding="utf-8"?>
<!-- Generator: Adobe Illustrator 19.2.1, SVG Export Plug-In . SVG Version: 6.00 Build 0)  -->
<svg version="1.1" id="Layer_1" xmlns="http://www.w3.org/2000/svg" xmlns:xlink="http://www.w3.org/1999/xlink" x="0px" y="0px"
	 viewBox="0 0 961 1501.3" style="enable-background:new 0 0 961 1501.3;" xml:space="preserve">
<style type="text/css">
	.st0{fill:none;}
	.st1{fill:#474647;stroke:#363636;stroke-miterlimit:10;}
	.st2{fill:none;stroke:#363636;stroke-miterlimit:10;}
	.st3{fill:url(#SVGID_1_);stroke:#373637;stroke-miterlimit:10;}
	.st4{fill:url(#SVGID_2_);stroke:#363636;stroke-miterlimit:10;}
	.st5{fill:url(#SVGID_3_);stroke:#373637;stroke-miterlimit:10;}
</style>
<pattern  y="1501.3" width="18.9" height="11.2" patternUnits="userSpaceOnUse" id="Hexes" viewBox="6.2 -17.2 18.9 11.2" style="overflow:visible;">
	<g>
		<rect x="6.2" y="-17.2" class="st0" width="18.9" height="11.2"/>
		<rect x="6.2" y="-17.2" class="st0" width="18.9" height="11.2"/>
		<polygon class="st1" points="21.1,-20 19.4,-17.2 21.1,-14.4 24.3,-14.4 25.9,-17.2 24.3,-20 		"/>
		<polygon class="st2" points="25.9,-17.2 24.3,-14.4 25.9,-11.7 29.1,-11.7 30.7,-14.4 29.1,-17.2 		"/>
		<polygon class="st2" points="25.9,-22.8 24.3,-20 25.9,-17.2 29.1,-17.2 30.7,-20 29.1,-22.8 		"/>
		<polygon class="st2" points="16.5,-22.8 14.8,-20 16.5,-17.2 19.7,-17.2 21.3,-20 19.7,-22.8 		"/>
		<polygon class="st1" points="2.2,-20 0.6,-17.2 2.2,-14.4 5.4,-14.4 7,-17.2 5.4,-20 		"/>
		<polygon class="st2" points="7,-17.2 5.4,-14.4 7,-11.7 10.2,-11.7 11.8,-14.4 10.2,-17.2 		"/>
		<polygon class="st2" points="7,-22.8 5.4,-20 7,-17.2 10.2,-17.2 11.9,-20 10.2,-22.8 		"/>
		<polygon class="st1" points="21.1,-8.9 19.4,-6.1 21.1,-3.3 24.3,-3.3 25.9,-6.1 24.3,-8.9 		"/>
		<polygon class="st2" points="25.9,-6.1 24.3,-3.3 25.9,-0.5 29.1,-0.5 30.7,-3.3 29.1,-6.1 		"/>
		<polygon class="st2" points="25.9,-11.7 24.3,-8.9 25.9,-6.1 29.1,-6.1 30.7,-8.9 29.1,-11.7 		"/>
		<polygon class="st1" points="11.6,-14.4 10,-11.7 11.6,-8.9 14.8,-8.9 16.4,-11.7 14.8,-14.4 		"/>
		<polygon class="st2" points="16.5,-11.7 14.8,-8.9 16.5,-6.1 19.7,-6.1 21.3,-8.9 19.7,-11.7 		"/>
		<polygon class="st2" points="16.5,-17.2 14.8,-14.4 16.5,-11.7 19.7,-11.7 21.3,-14.4 19.7,-17.2 		"/>
		<polygon class="st1" points="2.2,-8.9 0.6,-6.1 2.2,-3.3 5.4,-3.3 7,-6.1 5.4,-8.9 		"/>
		<polygon class="st2" points="7,-6.1 5.4,-3.3 7,-0.5 10.2,-0.5 11.8,-3.3 10.2,-6.1 		"/>
		<polygon class="st2" points="7,-11.7 5.4,-8.9 7,-6.1 10.2,-6.1 11.9,-8.9 10.2,-11.7 		"/>
		<polygon class="st2" points="16.5,-6.1 14.8,-3.3 16.5,-0.5 19.7,-0.5 21.3,-3.3 19.7,-6.1 		"/>
	</g>
</pattern>
<title>BG</title>
<linearGradient id="SVGID_1_" gradientUnits="userSpaceOnUse" x1="0.92" y1="751.335" x2="960.5" y2="751.335" gradientTransform="matrix(1 0 0 -1 0 1502)">
	<stop  offset="0" style="stop-color:#5E5F61"/>
	<stop  offset="8.559328e-002" style="stop-color:#5C5D5F"/>
	<stop  offset="0.5" style="stop-color:#59595B"/>
	<stop  offset="0.9144" style="stop-color:#5C5D5F"/>
	<stop  offset="1" style="stop-color:#5E5F61"/>
</linearGradient>
<rect x="0.9" y="0.8" class="st3" width="959.6" height="1499.7"/>
<pattern  id="SVGID_2_" xlink:href="#Hexes" patternTransform="matrix(1 0 0 -1 -0.5 -16420.9395)">
</pattern>
<rect x="0.5" y="0.5" class="st4" width="960" height="1500.3"/>
<linearGradient id="SVGID_3_" gradientUnits="userSpaceOnUse" x1="0.92" y1="751.335" x2="960.5" y2="751.335" gradientTransform="matrix(1 0 0 -1 0 1502)">
	<stop  offset="0" style="stop-color:#5E5F61;stop-opacity:0"/>
	<stop  offset="0.1153" style="stop-color:#5C5C5E;stop-opacity:0.2306"/>
	<stop  offset="0.5" style="stop-color:#59595B"/>
	<stop  offset="0.8847" style="stop-color:#5C5C5E;stop-opacity:0.2306"/>
	<stop  offset="1" style="stop-color:#5E5F61;stop-opacity:0"/>
</linearGradient>
<rect x="0.9" y="0.8" class="st5" width="959.6" height="1499.7"/>
</svg>
