<svg id="Layer_1" data-name="Layer 1" xmlns="http://www.w3.org/2000/svg" viewBox="0 0 323.45 1433.11"><defs><style>.cls-1{fill:#a4a4a4;}.cls-2{fill:#f1f1f1;}.cls-3{fill:#cfcfcf;}.cls-4{fill:#eee;}</style></defs><title>BGtug</title><path class="cls-1" d="M878.61,1345.53c-0.65,0-1.3,0-1.94,0-1.27-.13-1.34-0.43-0.51-1.72,0.71-1.09.69-1.38-.19-1.82-0.46-.23-1-0.32-1.45-0.56a1,1,0,0,1-.74-1.19,0.84,0.84,0,0,1,1-.38,11.22,11.22,0,0,0,1.92,0,1.69,1.69,0,0,0,1.42-2,13.13,13.13,0,0,0-2-5,40.28,40.28,0,0,1-2.57-4.33,5.86,5.86,0,0,0-2.16-2.7,11.85,11.85,0,0,1-3.41-3.66c-2.36-3.4-4.72-6.81-7-10.23a21.73,21.73,0,0,1-2.79-5.5,25.57,25.57,0,0,0-3-5.42,30.09,30.09,0,0,1-2.72-5.57c-0.94-2.53-1.66-5.11-3.33-7.38-0.94-1.28-1.1-3.14-1.62-4.74-0.27-.84-0.56-1.68-0.84-2.52a1.85,1.85,0,0,0-1.12,2c-0.32,4-.59,8,0.27,12a17.59,17.59,0,0,1,.33,3.47c0.08,6.34,2.17,12.17,4.42,18a10.41,10.41,0,0,1,.77,1.76c1,5.87,4.19,10.82,7,15.92,1.16,2.13,2.16,4.41,4.32,5.88A5.62,5.62,0,0,1,864,1342c2.36,4.89,5.28,9.51,7,14.69a11,11,0,0,0,1.1,2c2.59,4.33,5.23,8.63,7.78,13,1.11,1.9,2.07,3.88,3.07,5.84a9.92,9.92,0,0,1,.94,6,38.7,38.7,0,0,1-1.53,7.19c-0.76,2.2-1.12,4.54-2,6.7a120.69,120.69,0,0,0-4,13.75,74.85,74.85,0,0,1-2.58,7.73,6.76,6.76,0,0,0,1.71,7.79c2,2,3.77,4.26,5.64,6.4a13.31,13.31,0,0,1,2.19,3.65c1,2.48.23,4.83-.6,7.15a1.59,1.59,0,0,1-1.66.77,8.88,8.88,0,0,1-3.31-1c-3.25-1.42-5.85-3.8-8.61-5.93-2.55-2-5-4.12-7.46-6.2a20.39,20.39,0,0,1-1.7-1.59c-2.38-2.52-2.74-3.51-.21-5.77a17.47,17.47,0,0,0,1.13-1.57c4.55-5.15,6.3-11.48,7.63-18a30.94,30.94,0,0,1,.76-3,46.38,46.38,0,0,0,2-7.5,17.35,17.35,0,0,1,1.23-4.07,49.48,49.48,0,0,0,1.69-6,4.48,4.48,0,0,0-.94-4.32q-3.79-4.67-7.49-9.42c-1.11-1.43-2.15-2.91-3.12-4.44-1.39-2.18-2.78-4.34-4.35-6.41-2.19-2.88-4.16-5.94-6.06-9a21.21,21.21,0,0,0-5.22-5.68,1.12,1.12,0,0,0-1.89.47,13.7,13.7,0,0,0-.81,2.18c-1.79,7.15-3.75,14.27-5.25,21.49q-1.86,8.95-4.46,17.68c-1,3.22-2,6.43-2.73,9.71a105.47,105.47,0,0,1-6.19,18.31,3.06,3.06,0,0,0-.3.71c-0.46,3.52-2.29,6.58-3.3,9.9a44,44,0,0,0-1.93,16.86,37.82,37.82,0,0,1-.67,10.81,5,5,0,0,1-7.08,3.78,7.74,7.74,0,0,1-4.91-5.61,34.73,34.73,0,0,1-.52-3.84,18.23,18.23,0,0,0-.19-3.09c-1-3.63-.09-6.9,1.54-10.09a18.81,18.81,0,0,1,1.23-2.42c3.6-5.05,5.25-10.93,7.09-16.72,1.09-3.45,2-7,3-10.44a14.84,14.84,0,0,1,1-2.92c2.65-4.9,3.32-10.32,4.12-15.69,1.23-8.19,2.48-16.38,3.52-24.59,0.83-6.54,1.51-13.1,2.64-19.61a18.32,18.32,0,0,0-.11-5.8c-0.46-3.07-.89-6.14-1.33-9.22a1.48,1.48,0,0,0-.06-0.38c-1.6-3.59-1.33-7.58-2.41-11.29s-2-7.5-3.05-11.24a6.67,6.67,0,0,0-1.05-2.48c-1.49-1.79-1.91-3.94-2.36-6.08-0.74-3.55-1.39-7.11-2.11-10.66a9.79,9.79,0,0,1-.16-3.47c0.74-4.89.18-9.83,0.47-14.74a7.61,7.61,0,0,0-1.2-4.44,5.35,5.35,0,0,1-1.19-3.23c0.27-2.81-.74-5.36-1.47-8-0.79-2.85-2.08-5.59-1.35-8.7a4.8,4.8,0,0,0-.36-2.28c-0.87-2.88-.74-5.9-1.25-8.83a5,5,0,0,1,0-1.55c1.1-7.55,2.21-15.1,3.35-22.64a45.66,45.66,0,0,1,1-4.94,18.72,18.72,0,0,0,.78-6.51,6.67,6.67,0,0,1,2.56-6.16c1.31-1.05,1.19-1.41.2-3s-1.85-3.12-2.87-4.61a13.31,13.31,0,0,1-2.25-8.09,71.83,71.83,0,0,0-1.31-13.88c-1.95-11.48-3.79-23-5.62-34.48-0.32-2-1-2.46-3.2-2.45a4.63,4.63,0,0,0-2.52.93,8.59,8.59,0,0,1-5.19,1.25,27.54,27.54,0,0,0-6.57.53,9.16,9.16,0,0,1-3.85-.08c-2.54-.51-5.1-0.88-7.64-1.37a2.65,2.65,0,0,0-3.18,1.56c-0.06.12-.14,0.22-0.2,0.33-2,3.83-4.79,7-7.47,10.37a34.09,34.09,0,0,0-7.63,19.56c-0.15,2.19-.36,4.38-0.6,6.57a6.55,6.55,0,0,0,2.3,5.86c4.15,3.86,3.5,3.14,3.69,8.77,0,1,0,2.07,0,3.11a6.63,6.63,0,0,1-.83,3.35,51.34,51.34,0,0,1-8.95,11.67c-2.19,2.19-5.34,3.08-8.3,4.05a3.48,3.48,0,0,1-2.26-.34c-1.63-.58-1.91-1.44-1-3a7.45,7.45,0,0,1,4-3.55c3.15-1,5.08-3.29,6.74-6.06a48.45,48.45,0,0,1,6.17-8.93,2.37,2.37,0,0,0,.5-2.85c-0.43-.94-0.88-1.88-1.25-2.84a4.74,4.74,0,0,0-2.85-3c-2.23-.78-2.73-2.44-2.7-4.59a75,75,0,0,1,2.13-18.45,38.45,38.45,0,0,1,6.19-12.43c1.12-1.58,2.45-3,3.71-4.49A3.4,3.4,0,0,0,768,1125c-0.35-1-.67-2-1-2.93a2.58,2.58,0,0,0-1.84-1.83,9.74,9.74,0,0,1-3.4-1.82,18.41,18.41,0,0,0-6.58-3.21,7.63,7.63,0,0,1-3.59-2.2c-4.7-4.64-9.35-9.32-14.35-13.65a11.77,11.77,0,0,1-2.6-3.37,29.93,29.93,0,0,0-4.64-6.2,29.94,29.94,0,0,1-5.38-8,171.32,171.32,0,0,1-6.58-16.6,13.49,13.49,0,0,1-.68-5.73c0.24-2.57.32-5.16,0.49-7.74q0.42-6.19.89-12.38a3.61,3.61,0,0,1,.46-1.86c2-2.52,3.49-5.54,6.57-7a5,5,0,0,0,2.81-3c0.49-1.34,1.08-2.64,1.56-4a3.83,3.83,0,0,1,3.73-2.81c2.19-.14,4.36-0.53,6.54-0.86a1.06,1.06,0,0,0,.9-1.43,22.64,22.64,0,0,0-1.32-3.22,4.79,4.79,0,0,1-.25-3.76c2.35-7.26,4.66-14.54,7.06-21.79,0.68-2,1.38-2.26,3.16-1.28,1,0.56,2,1.23,3,1.78,1.81,1,2.32.86,3.54-.88,3.8-5.4,7.66-10.76,11.29-16.26a71.91,71.91,0,0,0,4.38-8.21c1.71-3.52,3.54-6.9,6.82-9.28a6.6,6.6,0,0,0,2.67-5,30.62,30.62,0,0,1,.79-5c1-3.91.44-7.65-.62-11.46a297.37,297.37,0,0,1-6.85-31.47,44.05,44.05,0,0,1-.46-5,2.53,2.53,0,0,1,.39-1.83c2.3-1.66,1.07-2.92-.28-4.29a3.93,3.93,0,0,1-.86-2.91c0-1.81,0-3.63.06-5.44a6.65,6.65,0,0,0-1.53-4.67c-0.81-1-1.56-2.07-2.32-3.11a61.62,61.62,0,0,1-11.82-29.57c-0.73-6-.15-11.87.71-17.75a74.07,74.07,0,0,1,4.52-16.84,7.06,7.06,0,0,0,.14-5.63c-0.45-1.07-.73-2.21-1.14-3.3-1-2.66-2.3-5.27-.88-8.19-0.12-3.36-.19-6.73-0.38-10.08-0.09-1.67-.39-3.34-0.63-5a8.67,8.67,0,0,0-.43-1.88,2.26,2.26,0,0,0-2.07-1.52,1.78,1.78,0,0,0-1.67,1.39c-0.52,1.19-1,2.4-1.44,3.61-0.85,2.17-1.62,4.37-2.55,6.51-0.68,1.57-.86,3.56-3,4.12-0.92-1.75-.46-3.54,0-5.25,1-3.88,2.11-7.74,3.33-11.56,2.72-8.51,5.72-16.92,9.06-25.21,1.06-2.64,2.24-5.24,3.38-7.84a45.87,45.87,0,0,0,3.24-8.3,8.24,8.24,0,0,1,2.93-4.46c3-2.61,6.13-5.18,9.11-7.86a13.14,13.14,0,0,1,5-2.78c1.48-.46,2.94-1,4.41-1.5a2.53,2.53,0,0,0,1.83-2.66c-0.06-2.59-.09-5.18-0.27-7.76-0.37-5.29-.9-10.57-1.24-15.86a15.93,15.93,0,0,0-1.51-6.36,7.64,7.64,0,0,1-.88-6c0.36-1.14-.26-1.91-1-2.72-4.53-4.8-9-9.62-12.29-15.45-1.27-2.27-2.89-4.32-5.58-5.12-1.4-.42-1.94-1.49-2.36-2.81-1.69-5.31-3.11-10.68-4.41-16.1q-0.36-1.51-.79-3a1.3,1.3,0,0,0-1.26-1.22,1.68,1.68,0,0,0-1.4,1.21,20.15,20.15,0,0,0-.78,2.6c-0.54,2.27-1,4.55-1.58,6.81-0.65,2.5-1.23,2.85-3.89,2.62s-5.15-.46-7.73-0.7c-2.32-.22-4.63-0.48-7-0.69-1.68-.15-2.78-0.5-2.92-2.85a6.69,6.69,0,0,0-.38-1.89,1.82,1.82,0,0,0-1.83-1.18,1.6,1.6,0,0,0-1.6.88,22.8,22.8,0,0,0-.77,2.18c-0.61,1.75-1,2.09-2.8,2-3.22-.25-6.44-0.58-9.66-0.88-2.06-.19-4.12-0.36-6.18-0.61-1.72-.2-2.36-0.69-2.63-2.34-0.32-1.91-.4-3.86-0.59-5.79a5.42,5.42,0,0,0-1.89-4.1,1.1,1.1,0,0,0-1.85.49,52.93,52.93,0,0,0-1.41,6,13.4,13.4,0,0,1-3.58,7.57c-1.69,1.78-3.19,3.74-4.72,5.66a4.45,4.45,0,0,1-3.69,1.79c-3.34,0-6.73.59-9.94-.94a1.46,1.46,0,0,0-2,.68c-1.56,3-3.08,6-4.57,9a1.51,1.51,0,0,0,.39,1.79,32.85,32.85,0,0,0,2.69,2.22c2.49,1.86,5,3.73,7.52,5.51a7.48,7.48,0,0,1,3.06,3.88,9.26,9.26,0,0,0,3.74,4.76c3.05,2.22,3.68,5.17,2.23,8.54a4.35,4.35,0,0,1-3.36,2.86c-3.94.78-7.85,1.67-11.77,2.49l-25.47,5.29c-0.38.08-.76,0.18-1.14,0.25-3.22.6-3.62,0.4-5-2.75-1.12-2.62-2.19-5.26-3.28-7.89-3.62-8.73-7.2-17.47-10.87-26.18a14.58,14.58,0,0,1-1.06-6.83,2.38,2.38,0,0,1,1.46-2.12,5.57,5.57,0,0,1,4.13-.54,10.58,10.58,0,0,1,3.89,1.68,4.18,4.18,0,0,0,4,.9c6-1.54,5.07-.9,11,0.7,1.12,0.31,2.22.71,3.35,1,1.6,0.41,2.25.24,2.9-1.11,1.46-3,2.83-6.1,4.16-9.19,0.47-1.1.28-1.86-.74-2.3-3.44-1.5-5.14-4.61-7.19-7.41a5.4,5.4,0,0,1-1-4.75c0.89-3.64,1.71-7.3,2.55-11a7.19,7.19,0,0,0,.1-1,1.81,1.81,0,0,0-1.52-.43l-15.52.42a16.11,16.11,0,0,1-4.62-.49c-4.13-1.1-8.24-2.28-12.4-3.21a4.12,4.12,0,0,1-3.61-4.31c-0.07-1.55-.07-3.11-0.19-4.65-0.53-7.29.49-14.42,1.84-21.58s3.68-14,5.71-21c1.12-3.82,3.95-6,6.94-8a4.79,4.79,0,0,1,2.21-.56,20.23,20.23,0,0,1,2.72,0,2.56,2.56,0,0,0,2.87-2.06,52.79,52.79,0,0,1,2.76-7.25,58.35,58.35,0,0,1,6.35-10.65c0.78-1.1,1.66-2.75,3.31-2,1.37,0.62.89,2.3,0.76,3.54-0.22,2.18-.62,4.35-1,6.53s-0.07,2.74,2,3.46,2.74,0.3,3-2,0.45-4.38.61-6.57c0.32-4.26.84-8.51,0.86-12.77A145.7,145.7,0,0,1,667.51,495a51.62,51.62,0,0,0,1.37-12.3,41,41,0,0,1,1.45-11.13c2.46-9.92,5-19.82,7.59-29.72,0.06-.25.12-0.5,0.2-0.75,0.69-2.22,1.22-2.62,3.64-2.6,1.16,0,2.32.2,3.48,0.23,1.73,0,2.49-.74,2.1-2.38-0.79-3.27-1.71-6.51-2.6-9.75q-8.34-30.32-16.7-60.65c-3.24-11.73-6.55-23.43-9.7-35.19a5.21,5.21,0,0,0-4-4.14c-7-1.92-12.85-5.88-18.27-10.64a101.19,101.19,0,0,1-24-30.69,45.79,45.79,0,0,1-5.07-25.2c1.24-12.78,6.57-23.57,17-31.53,0.31-.24.63-0.45,0.93-0.71a1.63,1.63,0,0,0,.54-2.07c-0.45-.93-0.94-1.84-1.44-2.75a3.06,3.06,0,0,0-2.11-1.57,21,21,0,0,0-2.27-.5c-6.46-.69-12.16-3.4-17.66-6.65a101.62,101.62,0,0,1-28.5-24.88,51.08,51.08,0,0,1-9.76-20.91,43.63,43.63,0,0,1,.64-21.51c2.6-9.23,7.44-17,15.75-22.31,1.31-.83,2.61-1.69,3.9-2.55a12.67,12.67,0,0,1,3.48-1.68c2.73-.79,5.43-1.72,8.19-2.41a47.79,47.79,0,0,1,5-.66,1,1,0,0,0,.76-1.46,7.48,7.48,0,0,0-.76-1.35,48,48,0,0,1-6-11.3,44.31,44.31,0,0,1-3.22-22,45.21,45.21,0,0,1,1.94-9.48,42.38,42.38,0,0,1,14.36-20.27,37.55,37.55,0,0,1,7.8-4.29A38.18,38.18,0,0,1,641.33,45a41.14,41.14,0,0,1,17.56,9.56,48.43,48.43,0,0,1,11.87,16.61,63.17,63.17,0,0,1,3.71,10.6c0.78,3.16.81,6.41,1.28,9.61,0.09,0.64.05,1.29,0.12,1.94,0.16,1.5.57,1.77,2,1.36,0.62-.17,1.23-0.4,1.85-0.58,4.6-1.37,9.24-2.53,14.11-2.3a9.51,9.51,0,0,0,2.31-.2,1.14,1.14,0,0,0,.9-1.46c-0.15-.76-0.44-1.49-0.66-2.23-0.72-2.35-1.52-4.68-2.14-7.06-3.18-12.15-2.07-23.92,3.89-35a41.63,41.63,0,0,1,24.08-20.23,29.81,29.81,0,0,1,6.46-1.22A74.36,74.36,0,0,1,740,24.31c2.76,0.13,5.29,1.2,7.84,2.13a37.61,37.61,0,0,1,16.8,12.07,53,53,0,0,1,10.86,25.36c1.3,8.18-.21,16-2.36,23.74-0.1.37-.28,0.72-0.4,1.09-1,2.85-.57,3.42,2.21,2.79a31,31,0,0,1,7.73-.39c12.09,0.33,22,5.34,29.75,14.5a33.66,33.66,0,0,1,6.05,10.34c1.53,4.26,3.23,8.44,3.83,13a50.66,50.66,0,0,1-2.44,24.46,95.09,95.09,0,0,1-9.9,19.29c-0.42.65-.83,1.31-1.2,2a1,1,0,0,0,.64,1.51,17.93,17.93,0,0,0,1.92.23,39.23,39.23,0,0,1,27.15,13.39,38.79,38.79,0,0,1,8.42,16,53.61,53.61,0,0,1,2.19,16.48,48,48,0,0,1-5.82,21.14,90.5,90.5,0,0,1-14.43,19.17,100.92,100.92,0,0,1-10.54,9.71c-4.93,3.87-10.15,7.14-16.33,8.65-1.51.37-3,.86-4.47,1.3a2.07,2.07,0,0,0-1.77,2.2,1.39,1.39,0,0,1-1.42,1.51c-0.52,0-1,.11-1.55.11a2.29,2.29,0,0,0-2.32,1.7c-0.35,1-.67,2-0.95,3q-14.68,52.14-29.34,104.28c-1.33,4.73-2.51,9.52-4,14.2-1.56,4.86-2,9.87-2.54,14.88-0.45,4.11-.85,8.23-1.28,12.35-0.08.77-.21,1.54-0.23,2.32-0.09,2.6.33,3.1,3,3.37,5.28,0.54,10.56,1,15.83,1.57,3.6,0.42,7.17,1,10.74,1.63q16.09,2.62,32.17,5.28c0.64,0.1,1.28.19,1.91,0.34a2.48,2.48,0,0,1,2,2.09q0.47,2.68.82,5.37c0.95,7.05,2,14.1,2.77,21.17a151.09,151.09,0,0,1,1.33,17.79c-0.06,9.06.14,18.13-.25,27.18S822,543,820.58,552.06c-0.8,5-.39,10.09,0,15.12,0.25,3.1.38,6.19,0.39,9.3,0,1,0,2.07,0,3.11,0,12,0,12-2.46,23.46-0.11.51-.23,1-0.36,1.51-0.65,2.41-1,2.71-3.37,3a10.34,10.34,0,0,1-1.16.08c-2.2,0-3.75.84-4.12,3.22-0.24,1.57-1.28,2.14-2.77,2.09-0.39,0-.78,0-1.16,0a3.24,3.24,0,0,0-3.84,2.95c-0.43,2.26-2,2.77-4,2.72-3.88-.09-7.77,0-11.65-0.18a17.69,17.69,0,0,0-7.14,1.57,3,3,0,0,0-2.08,3c0,1.16-.15,2.33-0.15,3.49,0,4.66.07,9.32,0.06,14a6.72,6.72,0,0,0,1.62,5c1.43,1.52,1.62,3.47,1.44,5.46a1.84,1.84,0,0,0,1.27,2.14c1.95,0.64,3.22,2.12,4.54,3.53,1.95,2.08,3.83,4.22,5.81,6.26,1.34,1.38,1.55,1.32,3.32.28a6.61,6.61,0,0,1,2-1c3.83-.63,7.66-1.34,11.52-1.66a7.36,7.36,0,0,1,7.49,5.92c0.63,2.78,1.18,5.57,1.8,8.35a15.69,15.69,0,0,1,.32,4.63c-0.25,3.35-.56,6.7-0.81,10.06a5.06,5.06,0,0,1-1.37,3.13c-0.7.76-1.41,1.52-2.09,2.3a5.87,5.87,0,0,1-4,2.16,16,16,0,0,0-2.66.55c-1.63.45-2.21,1.07-2,2.8,0.47,3.74.43,7.49,0.63,11.24a2.61,2.61,0,0,0,2.31,2.67c0.51,0.11,1,.26,1.5.41a3.88,3.88,0,0,0,5-1.7c2.38-3.45,5.17-4.19,9.13-2.92,1.23,0.39,2.43.88,3.64,1.35a3.46,3.46,0,0,1,2.26,2.91c0.51,3.32,1.33,6.62,0,9.95a4.2,4.2,0,0,0,.45,4.06c7.34,11.52,12.74,24,17.72,36.63,1.9,4.84,3.17,9.85,4.78,14.77a7.69,7.69,0,0,1,.38,1.9c0.16,2.68-.77,4-3.31,5-3.43,1.24-6.39.11-8.48-3.3-0.67-1.1-1.23-2.27-1.89-3.38a0.75,0.75,0,0,0-.65-0.26,0.83,0.83,0,0,0-.51.52,9.94,9.94,0,0,0-.35,2.28c0.07,3.46-.57,6.93.45,10.4,0.38,1.29,0,2.82-.09,4.24-0.11,1.68-.29,3.35-0.43,5a13.31,13.31,0,0,0,1.23,6.38,100.45,100.45,0,0,1,3.62,10.24,134.58,134.58,0,0,1,4.87,22.74,14.8,14.8,0,0,1,.13,2.32,100.46,100.46,0,0,1-1.07,12,39,39,0,0,1-7.4,16.9,17.49,17.49,0,0,1-1.83,2.51c-3.38,3.21-4,7.38-4.24,11.7-0.09,1.81-.08,3.62-0.15,5.43s-0.27,3.38-1.94,4.4a1.81,1.81,0,0,0-.51.57,1.47,1.47,0,0,0,.81,2.19c0.25,0.07.51,0.08,0.76,0.13,3.11,0.65,4.28,2,3.89,5.07A92.52,92.52,0,0,1,834,915.78a217.86,217.86,0,0,1-6.59,22.73c-0.4,1.09-.69,2.23-1.09,3.32a4.36,4.36,0,0,0,.23,3.74A21.53,21.53,0,0,1,829,954.1a8.69,8.69,0,0,0,2,4.57,40.48,40.48,0,0,0,3.9,4.82c2.92,2.82,3.9,6.33,4.05,10.18s0.3,7.49.67,11.23a20.4,20.4,0,0,0,1.9,7.07c0.79,1.63,1.5,3.3,2.25,4.95,0.53,1.16.9,2.39,2.37,2.87,0.9,0.29,1.16,1.33,1.53,2.15q7.25,16.33,14.46,32.66a22.66,22.66,0,0,1,1.15,3.7c1,4.15,2,8.32,3,12.45a13.54,13.54,0,0,1,.25,6.52,8.19,8.19,0,0,0,.65,5.6c1.5,3.22,1.46,6.79,1.12,10.3-0.14,1.41-.52,2.8-0.73,4.21a4.55,4.55,0,0,1-2.56,3.67c-3.29,1.57-5.38,4.37-7.62,7.05a2.93,2.93,0,0,0-.47,3.56c1.47,2.8.85,3.33-1.43,5.13-4.46,3.53-9,7-13.21,10.82-3,2.77-6.66,4.89-10,7.28-1.27.9-2.57,1.74-3.87,2.6-1.93,1.28-3.77,2.7-6.22,3a1.93,1.93,0,0,0-1.69,2.25,15.16,15.16,0,0,0,.26,2.31c1.64,10,3.23,19.93,5,29.87,0.92,5.23,1.86,10.44,1.75,15.78a12.28,12.28,0,0,0,1.64,5.92c1.31,2.52,2.61,5.06,3.75,7.67a53.75,53.75,0,0,0,4.87,8.38c0.57,0.85,1.32,1.73.95,2.84a6.76,6.76,0,0,1-2.81,3.6,2.21,2.21,0,0,1-1.49.26c-2.12-.45-4.38-0.4-6.18-2-1-.88-1.38-0.75-2.32.11-0.67.61-1.26,1.31-1.95,1.89a10.39,10.39,0,0,1-1.92,1.27c-0.67.34-1.6,0.06-2.13,0.75s-0.28,1.75-.27,2.64c0,7.37.31,14.75-.6,22.1-0.3,2.43-.35,4.89-0.55,7.33a12.49,12.49,0,0,0,2.08,7.37,16.12,16.12,0,0,1,1.86,5c0.55,2.4,1,4.81,1.67,7.18,1.36,5,3.27,5.89,7.87,3.68a2.27,2.27,0,0,0,1.37-2.51,5.58,5.58,0,0,0-1.17-2.84c-5.56-7-4.82-14.47-1.18-21.88,1.44-2.92,3-5.69,3.16-9a3.25,3.25,0,0,1,.56-1.41,0.74,0.74,0,0,1,1-.28,16.93,16.93,0,0,1,2.14,1.63,3.49,3.49,0,0,0,3.18,1,14.15,14.15,0,0,1,6.16.26,6.29,6.29,0,0,0,5.48-1.22c1.37-1,2.79-1.87,4.22-2.77a1.47,1.47,0,0,1,1.79-.16,1.77,1.77,0,0,1,.32,1.82,14,14,0,0,1-2.33,6.12,5.76,5.76,0,0,0-.86,5.48,15.66,15.66,0,0,1,.79,6.13,2.22,2.22,0,0,1-1.8,2.16c-2.7.81-4.6,4.37-4,7.06a1.62,1.62,0,0,0,.53,1c1.64,1,1.07,2.14.33,3.29s-1.6,2.35-2.44,3.5a1.38,1.38,0,0,0,.13,2,13.06,13.06,0,0,1,3.12,6.16c1.21,4.63,2.38,9.28,3.55,13.92,0.35,1.38.71,2.75,0,4.15a3,3,0,0,0,.24,2.62,16.07,16.07,0,0,1,.78,4.53,27.68,27.68,0,0,0,2.82,9.62c0.75,1.5,1.75,2.87,2.65,4.29a5,5,0,0,0,2.21,2.12,7.43,7.43,0,0,1,3.19,3.27c2.5,3.94,4.7,8,6.88,12.17a5.09,5.09,0,0,1,.86,3.31,5.11,5.11,0,0,0,1.19,4c1.53,2.07,2.63,4.41,4.4,6.35a22,22,0,0,1,4.54,8.5c0.95,3.08-.34,5.54-2.49,7.65a0.74,0.74,0,0,1-.7.05,0.81,0.81,0,0,1-.29-0.63c0-.62.63-1.13,0.26-2.06-1.13.58-2.22,1.17-3.34,1.69a0.92,0.92,0,0,1-1.34-.28,1.67,1.67,0,0,1,.15-1.07,7.07,7.07,0,0,1,.55-1ZM778.33,789.36l0.07-.07,0.74-.71,0,0,0.78-.74h0l0.93-.76,1.48-.92,0.75-.64,0.8-.15,0.84-.62a2.41,2.41,0,0,0,.71-0.14l0.84-.63a1.47,1.47,0,0,0,1-1.82c-0.33-1.51-.71-3-1-4.53a25.6,25.6,0,0,1-.91-5.33c0-2.08-.2-2.18-2.17-2.25-0.39,0-.78,0-1.16,0-3.18-.11-3.94-0.78-4.66-4a28.13,28.13,0,0,1-.59-6.16c0-2.45,0-4.91,0-7.36s-0.53-2.85-2.88-3.37c-1.26-.28-2.54-0.49-3.81-0.7-3.07-.5-3.61-0.23-4.64,2.62-1.32,3.64-2.58,7.31-3.85,11a9.18,9.18,0,0,0-.3,1.12,1.54,1.54,0,0,0,.9,1.91c0.35,0.16.74,0.23,1.1,0.38,3.75,1.58,4.53,2.84,4.22,6.81a3.6,3.6,0,0,1-.1.77,8.41,8.41,0,0,0,0,3.82,72.2,72.2,0,0,1,1,13.5,8.39,8.39,0,0,0,0,1.16c0.17,1.63.31,3.28,1.75,4.42,1.71-.54,2.67-1.94,3.66-3.28a1.7,1.7,0,0,0,.27-1.47c-0.28-1.13.41-1.36,1.28-1.26a5.38,5.38,0,0,0,2.29.07ZM699.08,401.9c-0.73-3.69-1.14-7.46-2.68-11.7a38.77,38.77,0,0,0,1.92,12.37c0.14,3.38,1.05,6.63,1.6,9.94,1.28,7.77,2.64,15.54,4,23.3,0.19,1.1.18,2.41,1.54,2.87,0.73,0.25,1-1.07.52-3.39-0.83-4.05-1.73-8.09-2.57-12.13C701.95,416.08,700.52,409,699.08,401.9Zm62.84,210.34a10,10,0,0,0,4.88-1.08q16.83-8.44,33.7-16.8a5.22,5.22,0,0,0,3.21-4c0.67-4.08,1.4-8.16,2.1-12.24a3.09,3.09,0,0,0-.17-2.27c-0.94-1.46-.62-3-0.32-4.5,1.22-6.22,2.4-12.45,3.58-18.68a25.76,25.76,0,0,0,.42-2.68,1.6,1.6,0,0,0-1.21-1.76,6.94,6.94,0,0,0-1.52-.29c-3.87-.31-7.73-0.6-11.6-0.9-4.25-.34-8.51-0.64-12.76-1-6.69-.63-13.38-1.36-20.07-2s-13.65-1.17-20.48-1.79q-11.4-1-22.78-2.11c-7.21-.69-14.41-1.46-21.61-2.15-5.57-.53-5.88-0.61-6.75,5.07-0.92,6-2,12-3,18-0.25,1.56-.58,3.05-2,4.06a5,5,0,0,0-1.67,3.4c-0.7,3.68-1.29,7.39-2,11.07a3.78,3.78,0,0,0,1.53,4.06c2.91,2.37,5.75,4.82,8.63,7.22,6,5,11.94,9.92,17.87,14.93a7.93,7.93,0,0,0,4.52,1.95c3,0.29,5.89.89,8.84,1.18,6.56,0.63,13,2,19.67,2a21.86,21.86,0,0,1,2.7.25C751.07,611.76,756.55,611.21,761.92,612.24Zm-33.4-179.11h0.15c-0.09,1.29-.19,2.58-0.27,3.87-0.13,2.24.07,2.62,2.12,2.87,3.85,0.47,7.71.81,11.58,1.18a1.87,1.87,0,0,0,2.1-1.34c0.26-.73.5-1.47,0.72-2.22q2.86-10.08,5.7-20.17a39.21,39.21,0,0,0,1.38-8.41c0.07-1.16.18-2.32,0.3-3.48,0.67-6.43,1.35-12.86,2-19.29,0.63-6.18,1.22-12.36,1.84-18.53,0.68-6.69,1.4-13.37,2.08-20.06,0.62-6,1.21-12.1,1.83-18.14,0.67-6.56,1.37-13.12,2-19.68,0.62-6,1.19-12.1,1.81-18.14s1.33-12.34,2-18.51a7.08,7.08,0,0,0,0-1.55,0.74,0.74,0,0,0-.41-0.53,0.76,0.76,0,0,0-.66.23c-1.11,1.59-2.23,3.18-3.27,4.81a45,45,0,0,1-14,14.3c-1,.62-1.94,1.29-2.91,1.93s-1.75,1.46-1.15,2.89c0.39,0.93-.35,1.45-1.16,1.65-1,.25-2,0.33-3.05.55a2.13,2.13,0,0,0-1.74,1.86,13.68,13.68,0,0,0-.18,1.54q-0.48,8.13-.94,16.27-0.09,1.55-.21,3.1c-0.41,5.54-.87,11.09-1.23,16.63s-0.48,11.38-1,17c-0.43,4.26-.48,8.52-0.81,12.78-0.44,5.67-.89,11.34-1.26,17s-0.51,11.38-1,17c-0.38,4-.46,8-0.75,12C729.56,419.46,729,426.29,728.52,433.13Zm84.84,566.69c0.1,0.69.25,2.1,0.54,3.49a1.27,1.27,0,0,0,2,1c3.49-1.69,7.09-3.19,10.06-5.78a14.51,14.51,0,0,1,2.18-1.6,1,1,0,0,1,1.55.55c0.51,2.52,2.32,4,4.22,5.33a3,3,0,0,0,4.66-1.54c0.61-2.91.89-5.79-.73-8.65a159.5,159.5,0,0,0-9.67-15,14.3,14.3,0,0,1-2.76-12.07,16.2,16.2,0,0,0-.22-6.93,10.26,10.26,0,0,0-2-4.13,1.05,1.05,0,0,0-1.88.15c-0.49.76-.91,1.57-1.41,2.32a14.51,14.51,0,0,1-1.6,2.19A3.07,3.07,0,0,1,813,958a8.62,8.62,0,0,1-.54-3.43c0.09-3.13,0-6.21-1.75-9a1.4,1.4,0,0,1,.08-1.81c2.3-1.87,2.14-4.57,2.48-7.09s0.5-4.89.87-7.32c0.41-2.69,1-5.33-.56-7.9a4.85,4.85,0,0,1-.28-2.28,3,3,0,0,1,1.47-3c2.05-.93,2.62-2.73,3.19-4.59,1.39-4.58,2.62-9.21,4.21-13.72a10.71,10.71,0,0,0,.3-5.67c-0.25-1.42-.77-1.69-2.15-1.15Q818,892,815.66,893a27.67,27.67,0,0,1-9,2,34.66,34.66,0,0,1-17-3c-1.17-.55-2.35-1.09-3.55-1.57A1.61,1.61,0,0,0,784,892a8.36,8.36,0,0,0,.55,1.83,118.7,118.7,0,0,1,5,17.51,2.53,2.53,0,0,0,.84,1.66,9,9,0,0,1,1.39,1.34c1.88,2.4,1.34,5-1.35,6.51a11.75,11.75,0,0,1-1.42.62c-2.77,1.1-2.77,1.1-2.2,3.88,0.1,0.51.2,1,.35,1.51a1.18,1.18,0,0,0,1.74.92,19.93,19.93,0,0,0,2.45-1.16,3.5,3.5,0,0,1,4.59.56,15.4,15.4,0,0,1,1.38,1.36c0.84,1,1.06,2-.06,3.05a0.77,0.77,0,0,0,.46,1.4c2.8,0.23,3.32,2,3.21,4.33,0,1,0,2.07,0,3.1-0.17,2.72-.48,3.09-3.07,3.62-1.52.31-3.07,0.5-4.58,0.84-2.22.49-2.58,1-2.48,3.16a35.74,35.74,0,0,0,.36,4.25,11,11,0,0,1-.65,6.46,9,9,0,0,0-.55,1.85,32.73,32.73,0,0,1-4.62,11c-1.66,2.62-3.44,5.16-5.11,7.78-1,1.5-.88,2.18.42,3.41q4.64,4.41,9.38,8.71c1.56,1.42,2.79,1.4,4.48.06a14.49,14.49,0,0,0,1.39-1.35q5.92-6.16,11.83-12.32c0.63-.65,1.3-1.26,2-1.84a0.79,0.79,0,0,1,1.24.41c0.31,2.17.61,4.35,0.87,6.53,0.33,2.83.3,5.74,1,8.46a16.7,16.7,0,0,1,.58,7.2C813.34,998.82,813.36,999,813.36,999.82ZM712.88,437.23c-0.16-2.47-.33-4.66-0.42-6.86q-0.52-12.21-1-24.42c0-.39,0-0.77-0.07-1.16-0.42-7.1-.9-14.19-1.24-21.29-0.4-8.27-.68-16.54-1-24.81,0-.26,0-0.52,0-0.77-1-7.19-.6-14.46-1.19-21.68-0.69-8.37-.75-16.79-1.08-25.19,0-.39,0-0.78-0.05-1.16-1-7.19-.53-14.46-1.21-21.68-0.65-6.81-.69-13.68-1-20.53a11.2,11.2,0,0,0-1.14-4.45c-1.88-4-3.78-8-5.35-12.05-1.71-4.46-3.43-8.94-3.84-13.79a7.08,7.08,0,0,0-.52-1.86,1,1,0,0,0-.59-0.32,0.38,0.38,0,0,0-.32.17,15.59,15.59,0,0,0-1.09,2,35.36,35.36,0,0,1-3.81,7.62,5.91,5.91,0,0,0-.64,5.87,57.21,57.21,0,0,1,2.24,7,58.94,58.94,0,0,1,.94,18.92,107.45,107.45,0,0,1-5.7,26.48c-2.42,6.81-2.2,4.33-.69,11.65q9.49,46,19.1,91.95,3,14.25,5.92,28.49a6.21,6.21,0,0,0,1,2.91,1.58,1.58,0,0,0,1.75.51,1.35,1.35,0,0,0,1-1.1C712.85,437.46,712.88,437.2,712.88,437.23Zm11.26-133.78c0-4.37,0-8,0-11.62a4.59,4.59,0,0,0-2-3.95,51.92,51.92,0,0,1-9.84-10.38c-1.15-1.57-1.79-3.73-4-4.31-0.69,1.79.34,3.55,0.12,5.34a13.41,13.41,0,0,0,0,1.94c0.09,3.1,0,6.23.31,9.31,0.79,7.08.57,14.21,1.14,21.3,0.68,8.37.75,16.79,1.09,25.19,0,0.26,0,.52,0,0.78,0.46,8.78,1,17.55,1.38,26.33,0.35,7.1.62,14.21,0.92,21.31,0,0.26,0,.52.05,0.77,0.46,8.65.93,17.3,1.36,25.95,0.34,7,.62,14,0.94,20.93,0,0.64.12,1.29,0.2,1.93,0.59,4.79,1.38,5.44,6.1,5.08a1.82,1.82,0,0,0,1.86-1.63,10.87,10.87,0,0,0,.15-1.54c0.27-7.75.62-15.51,0.77-23.26,0.14-7.5.13-15,.07-22.51C724.59,361.17,725.1,331.93,724.14,303.45Zm32.72,88.88,0.56,0.17c0.29-.84.61-1.67,0.85-2.52q4-14.18,8-28.38,10.24-36.41,20.46-72.82c0.24-.87.47-1.75,0.64-2.63a1.55,1.55,0,0,0-.77-1.65,14.3,14.3,0,0,0-1.37-.72,2.55,2.55,0,0,1-1.4-1.27,1.83,1.83,0,0,1,.48-1.78,1.31,1.31,0,0,0-.19-1.76c-0.42-.49-0.86-1-1.32-1.42a43.13,43.13,0,0,1-10.61-16.49,4.86,4.86,0,0,0-.57-1,0.4,0.4,0,0,0-.31-0.18,1,1,0,0,0-.63.26,14.47,14.47,0,0,0-.66,2.61c-0.35,3.08-.62,6.17-0.92,9.26-0.61,6.17-1.2,12.35-1.82,18.52-0.69,6.81-1.42,13.62-2.12,20.44-0.61,5.91-1.18,11.83-1.79,17.74-0.66,6.43-1.37,12.85-2,19.28-0.63,6.17-1.19,12.35-1.82,18.52C758.66,375.13,757.75,383.73,756.86,392.33Zm-77.38-76.47a0.81,0.81,0,0,0-.39.06q-3.92,4.28-7.82,8.59a1.65,1.65,0,0,0-.2,2.13,1.46,1.46,0,0,1-.51,2.28c-2.68,1.85-2.67,1.88-1.92,5,0.18,0.75.38,1.5,0.58,2.25l20.57,77.65q2.78,10.5,5.59,21a16.86,16.86,0,0,0,1,2.92c0.54,1.13,2.31,1.61,3.78,1,1.14-.44.81-1.48,0.71-2.35-0.11-1-.27-2.05-0.45-3.07-1.65-9.43-3.34-18.85-5-28.28q-7.51-43.39-15-86.79C680.31,317.4,680.33,316.44,679.48,315.85ZM814.71,776.69h0.07c0-.39,0-0.78,0-1.16,0.09-2,0-3.82-1.66-5.32A6,6,0,0,1,812,767.8a36.51,36.51,0,0,1-1.94-8.28c-0.36-3.22-.92-3.66-4-4.27-2.79-.54-5.59-1.06-8.38-1.59-2.54-.48-5.07-1-7.62-1.41a1.31,1.31,0,0,0-1.72,1.5c0.35,2.84-.05,5.69.13,8.52s0.54,5.92,2.43,8.41a5.54,5.54,0,0,1,.87,2.54c0.28,1.66.5,3.32,0.8,5,0.41,2.26,1.16,2.78,3.51,2.43a35.82,35.82,0,0,0,4.18-.82,10.06,10.06,0,0,1,5.72.11c2.23,0.67,4.49,1.22,6.75,1.79,1.34,0.34,1.92-.09,2-1.52C814.78,779,814.71,777.86,814.71,776.69Zm9.46-12.19c0.19,2.41-.06,4.66-2,6.44a3.1,3.1,0,0,0-1,2.06c-0.28,3.34-.59,6.68-0.84,10a3.13,3.13,0,0,0,.59,2.58,21.56,21.56,0,0,0,6.83,5c1.39,0.58,2.11,0,2.24-1.55,0.43-5.27,0-10.6,1-15.84a4.62,4.62,0,0,0-.86-3.28c-1.78-3-1.77-4,.42-6.55a3.74,3.74,0,0,0,.74-3.91c-0.88-3-1.67-6-2.48-9-1-3.61-1.93-7.24-2.9-10.85a1.52,1.52,0,0,0-.73-1.27c-0.78-.26-1.11.47-1.52,0.94-0.25.29-.46,0.62-0.69,0.93-3.62,4.83-3.22,3.87-1.7,9.06A72.86,72.86,0,0,1,824.18,764.51ZM692.72,437.39c-0.21-.91-0.41-1.92-0.68-2.92q-3.37-12.75-6.76-25.5-7.88-29.82-15.75-59.65-1.93-7.32-3.93-14.61a17,17,0,0,0-1.11-2.87,1.16,1.16,0,0,0-1.36-.47,1.09,1.09,0,0,0-.9,1.1,5.36,5.36,0,0,0,.22,1.53c0.55,2.13,1.1,4.26,1.68,6.38Q673,372.73,682,405.08q4.13,15,8.27,29.92a20.31,20.31,0,0,0,1.11,2.88,0.67,0.67,0,0,0,1,.28A2,2,0,0,0,692.72,437.39Zm76.42,580.67c0.2,2.2.38,4.64,0.65,7.07,0.48,4.35,1,8.7,1.53,13a6.41,6.41,0,0,0,.5,1.85,1.38,1.38,0,0,0,1.25.77c2.56,0.09,3.88-1.17,3.76-3.67,0-1-.25-2-0.37-3.07-0.39-3.45-.81-6.9-1.15-10.36-0.29-2.95-.45-5.9-0.74-8.85-0.18-1.85-.77-2.25-2.53-1.91-2.3.45-2.79,1-2.89,3.34C769.12,1016.79,769.14,1017.3,769.14,1018.06ZM813,796.35a9.13,9.13,0,0,0,4.92-.89,3.53,3.53,0,0,0,1.79-5.12,6.14,6.14,0,0,0-1.95-2.35,11.18,11.18,0,0,0-10.54-1.87,7,7,0,0,0-2,1.05,3.41,3.41,0,0,0-.83,5.06,7.85,7.85,0,0,0,2.81,2.58A10.49,10.49,0,0,0,813,796.35Zm16.58,239.83c-0.22-2.73-.54-4.91-0.53-7.1,0-4.82-1.12-9.46-1.9-14.16-0.4-2.4-1.61-3.26-4-3.3a1.29,1.29,0,0,0-1.42,1.44c0.18,1.66.41,3.33,0.71,5,1,5.58,2.19,11.14,1.84,16.87a9.06,9.06,0,0,0,.06,1.54,3.25,3.25,0,0,0,3.87,2.79c0.93-.11,1.36-1,1.38-2.84C829.54,1036.14,829.53,1035.88,829.53,1036.18ZM784,795.7c0.85,0,1.37,0,1.87-.11,3.55-.59,6.64-2,8.62-5.17,1.14-1.84.63-3.51-1.24-4.54-4-2.23-12.23,1-13.76,5.33a3.07,3.07,0,0,0,2.17,4.2A14.59,14.59,0,0,0,784,795.7ZM729.58,363.42a6.67,6.67,0,0,0,.55-1.37c0-5.44.84-10.82,1.14-16.25,0.23-4.25.47-8.52,0.78-12.77,0.47-6.58.91-13.16,1.37-19.73,0.12-1.68.29-3.35,0.38-5,0.15-2.84.28-5.68,0.34-8.52,0-1.08-.62-1.75-1.26-1.59a1.5,1.5,0,0,0-1,1.47,6.6,6.6,0,0,0-.07.77c-0.23,4.78-.63,9.56-0.65,14.34,0,12-1.18,24-1,36.08a20.64,20.64,0,0,1-.3,3.09A79.11,79.11,0,0,0,729.58,363.42ZM815,811.13a3.48,3.48,0,0,0,3.65-3.23,4.52,4.52,0,0,0-4.52-4.36,3.55,3.55,0,0,0-3.8,3.51A4.23,4.23,0,0,0,815,811.13Zm25.58,433.69c0,1.63.5,2.66,1.69,3.17a3.28,3.28,0,0,0,3.61-.57,6.13,6.13,0,0,0,2.13-4.78,2.7,2.7,0,0,0-2.32-2.68C842.86,1239.45,840.64,1241.57,840.54,1244.82ZM780,810.34a4.71,4.71,0,0,0,4.55-4,3.09,3.09,0,0,0-3.51-3.53,4.86,4.86,0,0,0-4.12,4A2.82,2.82,0,0,0,780,810.34Zm-42.81-670.6c0,1.49,0,2.14,0,2.78a12.47,12.47,0,0,0,.18,1.91,1.72,1.72,0,0,0,2,1.29,1.35,1.35,0,0,0,.73-1.6c-0.18-2.18-.4-4.35-0.62-6.52a4.43,4.43,0,0,0-.14-0.76,0.92,0.92,0,0,0-1.08-.82,1.18,1.18,0,0,0-.77.73C737.3,138,737.21,139.31,737.16,139.74Zm-86.68,13.43c0.11-.81-0.76-1.05-0.85-1.66-0.28-1.91-1.73-2.3-3.28-2.59s-2.1.33-1.66,1.92c0.93,3.34,1.52,3.7,4.85,2.85A3.94,3.94,0,0,0,650.48,153.17Zm78.25,146.66a23.79,23.79,0,0,0,0-3.47c-0.19-1.26.83-2.81-.79-3.77-1.24,1.15-.52,2.64-0.65,4a17.42,17.42,0,0,0,0,3.47c0.24,2.37-.69,4.86.59,7.08C728.16,307.65,728.6,306.58,728.73,299.83ZM833,796.69a5.89,5.89,0,0,0-4.77-4.84,1.18,1.18,0,0,0-1.17,1.23,6.63,6.63,0,0,0,4.59,4.69A1.24,1.24,0,0,0,833,796.69ZM768.6,199.44a1.93,1.93,0,0,0-.44-2.34,1.2,1.2,0,0,0-1.36-.4,1.52,1.52,0,0,0-.67.85,4.49,4.49,0,0,0,1.31,4.9,1.19,1.19,0,0,0,1.32.54,1,1,0,0,0,.27-1.61A2.37,2.37,0,0,1,768.6,199.44ZM748.45,438.2a11.8,11.8,0,0,0-1.71,5.71,0.8,0.8,0,0,0,.38.6,0.71,0.71,0,0,0,.93-0.38A8.58,8.58,0,0,0,748.45,438.2Z" transform="translate(-562.63 -24.13)"/><path class="cls-2" d="M728.73,299.83c-0.13,6.75-.57,7.82-0.88,7.28-1.28-2.22-.35-4.71-0.59-7.08a17.42,17.42,0,0,1,0-3.47c0.13-1.33-.59-2.82.65-4,1.62,1,.6,2.5.79,3.77A23.79,23.79,0,0,1,728.73,299.83Z" transform="translate(-562.63 -24.13)"/><path class="cls-3" d="M699.08,401.9l-0.76.67a38.75,38.75,0,0,1-1.92-12.37C697.94,394.44,698.35,398.21,699.08,401.9Z" transform="translate(-562.63 -24.13)"/><path class="cls-4" d="M748.45,438.2a8.58,8.58,0,0,1-.39,5.93,0.71,0.71,0,0,1-.93.38,0.8,0.8,0,0,1-.38-0.6A11.8,11.8,0,0,1,748.45,438.2Z" transform="translate(-562.63 -24.13)"/><path class="cls-1" d="M736.58,584.25c-0.08,4.9-2,8.5-6,11a9.87,9.87,0,0,1-10.34.42c-3.44-1.8-4.8-4.91-4.9-8.66a12.92,12.92,0,0,1,7.74-12.37c6-2.69,12.15,1.22,13.23,7.23A23.72,23.72,0,0,1,736.58,584.25Z" transform="translate(-562.63 -24.13)"/><path class="cls-1" d="M786.07,588.71a13.32,13.32,0,0,1-7.86,11.36,9.32,9.32,0,0,1-13.59-8.66c0.1-5.35,2.41-9.77,7.43-12.27C778.84,575.76,786.15,580.46,786.07,588.71Z" transform="translate(-562.63 -24.13)"/></svg>